<svg width="213" height="232" viewBox="0 0 213 232" fill="none" xmlns="http://www.w3.org/2000/svg">
<path d="M32.7229 115.109C32.7229 85.4309 56.7818 61.3721 86.4599 61.3721C116.138 61.3721 140.197 85.4309 140.197 115.109C140.197 115.937 140.868 116.609 141.697 116.609C142.525 116.609 143.197 115.937 143.197 115.109C143.197 83.7741 117.795 58.3721 86.4599 58.3721C55.1249 58.3721 29.7229 83.7741 29.7229 115.109C29.7229 118.961 30.1071 122.726 30.8396 126.365C31.0031 127.177 31.794 127.703 32.6061 127.539C33.4183 127.376 33.9441 126.585 33.7806 125.773C33.0871 122.327 32.7229 118.761 32.7229 115.109Z" fill="url(#paint0_linear_11_1244)"/>
<path fill-rule="evenodd" clip-rule="evenodd" d="M93.0355 40.8369C50.8053 40.8369 16.571 75.0712 16.571 117.301C16.571 159.532 50.8053 193.766 93.0355 193.766C135.266 193.766 169.5 159.532 169.5 117.301C169.5 75.0712 135.266 40.8369 93.0355 40.8369ZM19.571 117.301C19.571 76.7281 52.4622 43.8369 93.0355 43.8369C133.609 43.8369 166.5 76.7281 166.5 117.301C166.5 157.875 133.609 190.766 93.0355 190.766C52.4622 190.766 19.571 157.875 19.571 117.301Z" fill="url(#paint1_linear_11_1244)"/>
<path fill-rule="evenodd" clip-rule="evenodd" d="M0.789307 116.863C0.789307 65.6744 42.2857 24.178 93.4742 24.178C144.663 24.178 186.159 65.6744 186.159 116.863C186.159 168.051 144.663 209.548 93.4742 209.548C42.2857 209.548 0.789307 168.051 0.789307 116.863ZM93.4742 27.178C43.9426 27.178 3.78931 67.3313 3.78931 116.863C3.78931 166.394 43.9426 206.548 93.4742 206.548C143.006 206.548 183.159 166.394 183.159 116.863C183.159 67.3313 143.006 27.178 93.4742 27.178Z" fill="url(#paint2_linear_11_1244)"/>
<path fill-rule="evenodd" clip-rule="evenodd" d="M96.981 0.503906C33.2026 0.503906 -18.5 52.2065 -18.5 115.985C-18.5 179.763 33.2026 231.466 96.981 231.466C160.759 231.466 212.462 179.763 212.462 115.985C212.462 52.2065 160.759 0.503906 96.981 0.503906ZM-15.5 115.985C-15.5 53.8634 34.8595 3.50391 96.981 3.50391C159.103 3.50391 209.462 53.8634 209.462 115.985C209.462 178.107 159.103 228.466 96.981 228.466C34.8595 228.466 -15.5 178.107 -15.5 115.985Z" fill="url(#paint3_linear_11_1244)"/>
<defs>
<linearGradient id="paint0_linear_11_1244" x1="96.981" y1="0.503906" x2="96.981" y2="231.466" gradientUnits="userSpaceOnUse">
<stop stop-color="#FF9771" stop-opacity="0.84"/>
<stop offset="0.954425" stop-color="#FF9771" stop-opacity="0"/>
</linearGradient>
<linearGradient id="paint1_linear_11_1244" x1="96.981" y1="0.503906" x2="96.981" y2="231.466" gradientUnits="userSpaceOnUse">
<stop stop-color="#FF9771" stop-opacity="0.84"/>
<stop offset="0.954425" stop-color="#FF9771" stop-opacity="0"/>
</linearGradient>
<linearGradient id="paint2_linear_11_1244" x1="96.981" y1="0.503906" x2="96.981" y2="231.466" gradientUnits="userSpaceOnUse">
<stop stop-color="#FF9771" stop-opacity="0.84"/>
<stop offset="0.954425" stop-color="#FF9771" stop-opacity="0"/>
</linearGradient>
<linearGradient id="paint3_linear_11_1244" x1="96.981" y1="0.503906" x2="96.981" y2="231.466" gradientUnits="userSpaceOnUse">
<stop stop-color="#FF9771" stop-opacity="0.84"/>
<stop offset="0.954425" stop-color="#FF9771" stop-opacity="0"/>
</linearGradient>
</defs>
</svg>
